<?xml version="1.0" standalone="no"?>
<!DOCTYPE svg PUBLIC "-//W3C//DTD SVG 1.1//EN" "http://www.w3.org/Graphics/SVG/1.1/DTD/svg11.dtd" >
<svg>
<metadata>
Created by FontForge 20090622 at Tue May 31 05:00:38 2016
 By deploy user
Copyright (c) 2012 by Tonya Baydina. All rights reserved.
</metadata>
<defs>
<font id="Boblic" horiz-adv-x="379" >
  <font-face 
    font-family="Boblic"
    font-weight="400"
    font-style="oblique"
    font-stretch="normal"
    units-per-em="1000"
    panose-1="2 0 0 0 0 0 0 0 0 0"
    ascent="750"
    descent="-250"
    x-height="560"
    cap-height="700"
    bbox="-47 -261 855 891"
    underline-thickness="50"
    underline-position="-50"
    unicode-range="U+0020-U+2260"
  />
<missing-glyph horiz-adv-x="200" 
 />
    <glyph glyph-name=".notdef" horiz-adv-x="200" 
 />
    <glyph glyph-name=".null" horiz-adv-x="0" 
 />
    <glyph glyph-name="nonmarkingreturn" horiz-adv-x="333" 
 />
    <glyph glyph-name="space" unicode=" " horiz-adv-x="200" 
 />
    <glyph glyph-name="exclam" unicode="!" horiz-adv-x="186" 
d="M62 200l-11 500h82l-10 -500h-61zM40 47q0 53 52 53q54 0 54 -53t-54 -53q-52 0 -52 53z" />
    <glyph glyph-name="quotedbl" unicode="&#x22;" horiz-adv-x="363" 
d="M222 750h81l-4 -299h-73zM60 750h81l-4 -299h-73z" />
    <glyph glyph-name="numbersign" unicode="#" horiz-adv-x="534" 
d="M49 545h99l33 205h70l-33 -205h130l33 205h70l-33 -205h86v-71h-97l-28 -179h106v-71h-117l-35 -224h-70l35 224h-130l-35 -224h-70l35 224h-68v71h79l28 179h-88v71zM207 474l-28 -179h130l28 179h-130z" />
    <glyph glyph-name="dollar" unicode="$" horiz-adv-x="460" 
d="M36 534q0 75 40 121t107 57v90h79v-89q147 -13 147 -155q0 -19 -5 -46l-86 10q2 30 2 34q0 48 -27.5 69.5t-70.5 21.5q-48 0 -76.5 -31t-28.5 -82q0 -56 28.5 -79t115.5 -52q168 -55 168 -198q0 -93 -46 -150t-121 -66v-90h-79v92q-62 11 -105 52.5t-43 123.5q0 33 4 56
l84 -12q-2 -10 -2 -32q0 -58 33 -89.5t74 -31.5q60 0 87.5 41.5t27.5 95.5q0 48 -31 84t-116 62q-79 24 -119.5 68.5t-40.5 124.5z" />
    <glyph glyph-name="quotesingle" unicode="'" horiz-adv-x="201" 
d="M60 750h81l-4 -299h-73z" />
    <glyph glyph-name="parenleft" unicode="(" horiz-adv-x="329" 
d="M140 263q0 -84 18.5 -162t45 -128.5t52.5 -89t44 -55.5l19 -18l-56 -62q-9 6 -23 18.5t-51 58.5t-65 100t-51 145.5t-23 192.5t22 191.5t53 147t62.5 98.5t53.5 60l22 18l56 -62q-7 -6 -19 -18t-43 -54.5t-54.5 -91t-43 -127t-19.5 -162.5z" />
    <glyph glyph-name="parenright" unicode=")" horiz-adv-x="329" 
d="M189 263q0 84 -18.5 162t-44.5 128.5t-52.5 89t-45.5 55.5l-18 18l56 62q9 -6 23 -18.5t51 -58.5t65 -100t51 -145.5t23 -192.5q0 -74 -11.5 -142.5t-30.5 -118.5t-42 -93.5t-45.5 -72t-41.5 -49.5t-30 -30l-12 -9l-56 62q7 6 19 18t43 54.5t54.5 91t43 127t19.5 162.5z
" />
    <glyph glyph-name="asterisk" unicode="*" horiz-adv-x="464" 
d="M136 328v1q-18 5 -37 18.5t-29 29.5l121 140l-181 42q-2 47 26 78l171 -72l-16 185q40 16 82 0l-16 -185l171 72q28 -34 25 -78l-180 -42l121 -140q-10 -16 -28.5 -30t-37.5 -18l-96 158z" />
    <glyph glyph-name="plus" unicode="+" horiz-adv-x="447" 
d="M259 522v-139h138v-67h-138v-141h-71v141h-138v67h138v139h71z" />
    <glyph glyph-name="comma" unicode="," horiz-adv-x="202" 
d="M98 97q64 0 64 -82q0 -49 -30.5 -83.5t-80.5 -37.5l-7 33q26 3 47.5 18t21.5 42q0 7 -3 13q-8 -7 -25 -7q-20 0 -32.5 15.5t-12.5 39.5q0 20 18 34.5t40 14.5z" />
    <glyph glyph-name="hyphen" unicode="-" horiz-adv-x="305" 
d="M40 366h225v-73h-225v73z" />
    <glyph glyph-name="period" unicode="." horiz-adv-x="186" 
d="M40 47q0 53 52 53q54 0 54 -53t-54 -53q-52 0 -52 53z" />
    <glyph glyph-name="slash" unicode="/" horiz-adv-x="369" 
d="M5 -115l283 905l76 -23l-283 -905z" />
    <glyph glyph-name="zero" unicode="0" horiz-adv-x="525" 
d="M134 354v-1q0 -192 44 -254q15 -21 39 -32t46 -11q20 0 43.5 11.5t38.5 31.5q44 62 44 255q0 187 -44 249q-15 20 -38.5 31.5t-43.5 11.5q-22 0 -46 -11t-39 -32q-44 -62 -44 -249zM475 355q0 -91 -14 -172t-38 -121q-48 -78 -162 -78q-113 0 -161 78q-50 82 -50 293
q0 203 50 285q48 78 161 78q114 0 162 -78q24 -40 38 -117.5t14 -167.5z" />
    <glyph glyph-name="one" unicode="1" horiz-adv-x="313" 
d="M52 547l-32 63l151 90h62v-700h-82v599z" />
    <glyph glyph-name="two" unicode="2" horiz-adv-x="460" 
d="M40 71l108 150q21 30 55.5 75t51.5 69t36.5 55.5t27.5 57t8 50.5q0 118 -103 118q-94 0 -94 -96q0 -22 5 -45l-81 -7q-7 28 -7 60q0 158 179 158q33 0 62.5 -8t59 -26t47 -55t17.5 -89q0 -29 -7.5 -59t-14 -49.5t-30.5 -57l-32.5 -50.5t-46 -63l-47.5 -64l-88 -120h265
v-75h-371v71z" />
    <glyph glyph-name="three" unicode="3" horiz-adv-x="466" 
d="M222 -10q-66 0 -103.5 16.5t-63.5 56.5q-35 55 -22 139l84 -7q-9 -61 15 -97q25 -36 88 -36q51 0 85 38.5t34 98.5q0 132 -143 132h-37v79h33q58 0 91 40.5t33 89.5q0 99 -103 100q-59 0 -86 -37q-16 -23 -9 -71l-81 -7q-13 69 14 113q44 72 164 72q86 0 136 -41t50 -123
q0 -116 -107 -163q-4 -2 -3.5 -5t3.5 -4q58 -13 95 -55.5t37 -117.5q0 -89 -55 -150t-149 -61z" />
    <glyph glyph-name="four" unicode="4" horiz-adv-x="520" 
d="M307 0v175h-207v-1l-1 1h-59v53l240 472h27v2h82v-457h90v-70h-90v-175h-82zM135 245h172v351z" />
    <glyph glyph-name="five" unicode="5" horiz-adv-x="479" 
d="M407 700v-75h-233l-12 -189q29 5 83 5q102 -1 148 -64t46 -165q0 -103 -56 -162.5t-143 -59.5q-32 0 -61.5 8t-60.5 26.5t-49.5 56t-18.5 90.5q0 33 4 56l84 -12q-2 -10 -2 -32q0 -59 30.5 -90t70.5 -31q60 0 88.5 43t28.5 97q0 22 -1.5 38.5t-8.5 41.5t-20.5 41
t-39.5 28.5t-62 12.5q-37 0 -145 -12l20 348h310z" />
    <glyph glyph-name="six" unicode="6" horiz-adv-x="489" 
d="M257 -10q-108 0 -155 73q-42 65 -42 294q0 227 42 290q49 73 153 73q109 0 153 -71q31 -51 17 -130l-81 7q7 59 -14 90q-25 34 -73 34q-49 0 -77 -38q-29 -41 -34 -205q53 24 114 24q93 0 138.5 -58.5t45.5 -156.5q0 -103 -54 -164.5t-133 -61.5zM252 358q-62 0 -107 -26
q-2 -63 6.5 -135t28.5 -99q26 -36 74 -36q55 0 81 45t26 99q0 45 -7.5 76t-33 53.5t-68.5 22.5z" />
    <glyph glyph-name="seven" unicode="7" horiz-adv-x="410" 
d="M30 700h350v-74l-222 -637l-76 26l208 612h-260v73z" />
    <glyph glyph-name="eight" unicode="8" horiz-adv-x="501" 
d="M431 553q0 -51 -29.5 -94.5t-84.5 -72.5q65 -28 104.5 -81.5t39.5 -109.5q0 -104 -55.5 -158t-157.5 -54q-41 0 -75.5 9.5t-65.5 31t-49 61.5t-18 96q0 131 132 204q-55 37 -83 76t-28 91q0 88 53.5 126t130.5 38q35 0 65 -7t58.5 -24t45.5 -50.5t17 -81.5zM125 185
q0 -62 33 -97.5t87 -35.5q69 0 98.5 39.5t29.5 93.5q0 45 -30.5 89t-98.5 71q-61 -27 -90 -71.5t-29 -88.5zM350 550q0 49 -29 74.5t-75 25.5q-49 0 -78 -25.5t-29 -74.5q0 -38 25.5 -68.5t81.5 -61.5q59 27 81.5 57.5t22.5 72.5z" />
    <glyph glyph-name="nine" unicode="9" horiz-adv-x="491" 
d="M234 720q108 0 155 -73q42 -65 42 -294q0 -227 -42 -290q-49 -73 -153 -73q-109 0 -153 71q-31 51 -17 130l81 -7q-7 -59 14 -90q25 -34 73 -34q49 0 77 38q31 42 33 213q-52 -27 -113 -27q-91 0 -138.5 58t-47.5 154q0 106 49 165t140 59zM239 355q57 0 107 30
q0 176 -35 227q-26 36 -74 36q-36 0 -59.5 -13t-33.5 -37t-13 -44t-3 -48q0 -151 111 -151z" />
    <glyph glyph-name="colon" unicode=":" horiz-adv-x="186" 
d="M40 513q0 53 52 53q54 0 54 -53t-54 -53q-52 0 -52 53zM40 47q0 53 52 53q54 0 54 -53t-54 -53q-52 0 -52 53z" />
    <glyph glyph-name="semicolon" unicode=";" horiz-adv-x="202" 
d="M98 97q64 0 64 -82q0 -49 -30.5 -83.5t-80.5 -37.5l-7 33q26 3 47.5 18t21.5 42q0 7 -3 13q-8 -7 -25 -7q-20 0 -32.5 15.5t-12.5 39.5q0 20 18 34.5t40 14.5zM42 513q0 53 52 53q54 0 54 -53t-54 -53q-52 0 -52 53z" />
    <glyph glyph-name="less" unicode="&#x3c;" horiz-adv-x="443" 
d="M20 384l346 164l27 -56l-303 -143l303 -143l-27 -56l-346 164v70z" />
    <glyph glyph-name="equal" unicode="=" horiz-adv-x="439" 
d="M50 460h339v-67h-339v67zM50 304h339v-67h-339v67z" />
    <glyph glyph-name="greater" unicode="&#x3e;" horiz-adv-x="443" 
d="M77 548l346 -164v-70l-346 -164l-27 56l303 143l-303 143z" />
    <glyph glyph-name="question" unicode="?" horiz-adv-x="468" 
d="M302 365q-50 -37 -50 -96q0 -15 5 -70l-68 -2q-15 42 -15 88q0 69 51 113l20.5 17l20 17l16 14.5t15.5 15.5l12 14.5t10.5 16.5t7 17t5.5 20t1 21q0 95 -98 95q-36 0 -66.5 -21.5t-30.5 -74.5q0 -18 3 -39l-81 -7q-5 30 -5 54q0 46 16.5 79t45 49t57.5 23t63 7
q181 0 181 -160q0 -61 -28 -103.5t-88 -87.5zM173 47q0 53 52 53q54 0 54 -53t-54 -53q-52 0 -52 53z" />
    <glyph glyph-name="at" unicode="@" horiz-adv-x="905" 
d="M50 309q0 441 405 441q400 0 400 -407q0 -55 -2 -92.5t-7.5 -81.5t-17.5 -72.5t-31 -54t-49.5 -37.5t-70.5 -12q-46 0 -80.5 26t-43.5 58q-2 4 -4 4t-4 -4q-15 -37 -47.5 -62t-75.5 -25q-67 0 -108.5 42.5t-41.5 108.5t51.5 105.5t122.5 39.5q51 0 88 -8v108
q0 65 -19.5 91.5t-78.5 26.5q-28 0 -50.5 -14.5t-22.5 -37.5q0 -22 13 -48l-69 -32q-21 32 -21 77q0 53 43.5 87t108.5 34q99 0 137.5 -42.5t38.5 -122.5v-220q0 -47 16 -80.5t50 -33.5q50 0 72 60t22 210q0 162 -74.5 248.5t-242.5 86.5q-156 0 -239 -87t-83 -279
q0 -76 6.5 -132t28.5 -114.5t60 -95.5t104 -60.5t158 -23.5q46 0 108 16l16 -77q-69 -19 -137 -19q-81 0 -145.5 16t-109 42t-77 66.5t-51 81.5t-29 95t-14 100.5t-3.5 103.5zM446 219q-43 0 -67 -22t-24 -58t19.5 -56.5t57.5 -20.5q42 0 72 36.5t30 94.5v17q-41 9 -88 9z
" />
    <glyph glyph-name="A" unicode="A" horiz-adv-x="454" 
d="M9 0l165 700h102l169 -700h-86l-46 201h-180l-46 -201h-78zM203 501l-53 -228h147l-52 228l-17 81q-1 3 -2.5 4.5t-3.5 0t-2 -4.5z" />
    <glyph glyph-name="B" unicode="B" horiz-adv-x="512" 
d="M80 0v700q82 4 150 4q88 0 140 -39.5t52 -123.5q0 -60 -23 -99.5t-59 -56.5q-3 -1 -3 -4.5t3 -4.5q49 -13 80.5 -60t31.5 -113q0 -92 -57.5 -149.5t-163.5 -57.5q-49 0 -151 4zM232 340h-70v-273q27 -3 65 -1q66 1 101.5 36.5t35.5 99.5q0 138 -132 138zM232 636h-70
v-226h70q59 0 83.5 37t24.5 90q0 40 -26 68.5t-82 30.5z" />
    <glyph glyph-name="C" unicode="C" horiz-adv-x="464" 
d="M338 196l84 7q9 -98 -19 -144q-45 -73 -154 -73q-106 0 -153 73q-46 72 -46 294q0 221 46 290q49 73 153 73q112 0 157 -73q29 -48 13 -139l-81 7q8 70 -10 97q-28 38 -77 38t-77 -38q-21 -29 -29.5 -109t-8.5 -147v-1q0 -67 8.5 -147.5t29.5 -109.5q28 -38 77 -38
q47 0 75 38q22 31 12 102z" />
    <glyph glyph-name="D" unicode="D" horiz-adv-x="503" 
d="M162 631l-1 -562q27 -2 71 -2q77 0 105 39q21 29 30.5 104.5t9.5 145.5q0 184 -40 240q-28 38 -94 38q-35 0 -81 -3zM80 0v700q98 4 166 4q124 0 169 -74q23 -38 35.5 -115t12.5 -158q0 -84 -13 -166t-36 -120q-45 -73 -172 -75q-36 -1 -162 4z" />
    <glyph glyph-name="E" unicode="E" horiz-adv-x="433" 
d="M80 0v700h311v-75h-229v-219h186v-75h-186v-256h231v-75h-313z" />
    <glyph glyph-name="F" unicode="F" horiz-adv-x="431" 
d="M80 0v700h321v-75h-239v-227h199v-75h-199v-323h-82z" />
    <glyph glyph-name="G" unicode="G" horiz-adv-x="505" 
d="M240 328h189q13 -73 8 -152.5t-28 -116.5q-45 -73 -160 -73q-114 0 -159 73q-40 65 -40 294q0 225 40 290q45 73 166 73q116 0 161 -73q13 -21 16 -60t-4 -81l-81 7q8 70 -10 97q-28 38 -81 38q-61 0 -89 -38q-34 -48 -34 -254v-1q0 -207 34 -255q28 -38 83 -38
q50 0 81 38q30 35 22 157h-114v75z" />
    <glyph glyph-name="H" unicode="H" horiz-adv-x="541" 
d="M379 0v331h-217v-331h-82v700h82v-294h217v294h82v-700h-82z" />
    <glyph glyph-name="I" unicode="I" horiz-adv-x="242" 
d="M80 0v700h82v-700h-82z" />
    <glyph glyph-name="J" unicode="J" horiz-adv-x="349" 
d="M279 700v-552q0 -162 -144 -162q-57 0 -91 35t-39 82l74 14q4 -26 19.5 -44t39.5 -18q33 0 47 22.5t14 68.5v554h80z" />
    <glyph glyph-name="K" unicode="K" horiz-adv-x="527" 
d="M80 0v700h82v-291h42l170 291h83l-188 -323l215 -377h-88l-197 343h-37v-343h-82z" />
    <glyph glyph-name="L" unicode="L" horiz-adv-x="407" 
d="M80 0v700h82v-625h225v-75h-307z" />
    <glyph glyph-name="M" unicode="M" horiz-adv-x="672" 
d="M510 0v380q0 115 7 172q0 2 -2.5 3t-3.5 -1l-139 -368h-72l-140 367q-2 2 -4 1t-2 -3q8 -71 8 -172v-379h-82v699h103l150 -406q1 -1 3 -1t3 1l150 406h103v-699h-82z" />
    <glyph glyph-name="N" unicode="N" horiz-adv-x="555" 
d="M156 700l237 -521q1 -5 5 -2q1 2 1 4q-6 53 -6 253v266h82v-700h-77l-236 520q-1 3 -4 2t-2 -4q6 -94 6 -248v-271h-82v701h76z" />
    <glyph glyph-name="O" unicode="O" horiz-adv-x="505" 
d="M134 359q0 -213 36 -264q28 -38 83 -38q52 0 80 38q36 51 36 264q0 200 -33 246q-28 38 -83 38q-58 0 -86 -38q-33 -46 -33 -246zM455 360q0 -88 -11 -176.5t-33 -125.5q-45 -73 -160 -73q-114 0 -159 73q-42 69 -42 302q0 218 39 282q45 73 162 73q118 0 163 -73
q41 -67 41 -282z" />
    <glyph glyph-name="P" unicode="P" horiz-adv-x="471" 
d="M80 0v700q61 4 139 4q103 0 157.5 -50.5t54.5 -145.5q0 -99 -52.5 -163.5t-162.5 -64.5q-25 0 -54 8v-288h-82zM229 636q-46 0 -67 -2v-273q23 -9 61 -9q60 0 92 39.5t32 112.5q0 66 -27.5 98.5t-90.5 33.5z" />
    <glyph glyph-name="Q" unicode="Q" horiz-adv-x="489" 
d="M439 352q0 -229 -40 -294q-38 -62 -123 -71q-3 -30 8.5 -55.5t39.5 -25.5q26 0 42 9l17 -61q-25 -16 -66 -16q-66 0 -91.5 37.5t-27.5 113.5q-76 12 -110 69q-38 62 -38 294q0 228 38 290q45 73 155 73q111 0 156 -73q40 -65 40 -290zM134 351v-1q0 -212 32 -257
q28 -38 79 -38q48 0 76 38q32 45 32 258q0 211 -32 256q-28 38 -76 38q-51 0 -79 -38q-32 -45 -32 -256z" />
    <glyph glyph-name="R" unicode="R" horiz-adv-x="527" 
d="M80 0v700q57 4 139 4q102 0 160 -47.5t58 -133.5q0 -65 -29 -111t-85 -65q-5 0 -4 -4q1 -3 4 -3q35 -6 59 -37.5t29 -63.5q2 -10 4 -26.5t3.5 -26t3.5 -23.5t4 -22.5t5 -18.5t6.5 -16t8 -11.5t10 -8t12.5 -2.5t18 4l17 -83q-27 -11 -51 -11q-31 0 -53 16t-35.5 47.5
t-20.5 65t-12 81.5q-4 38 -34 69.5t-75 31.5h-60v-305h-82zM224 633q-36 0 -62 -3v-244h60q128 0 128 137q0 110 -126 110z" />
    <glyph glyph-name="S" unicode="S" horiz-adv-x="460" 
d="M36 534q0 86 51 133.5t134 47.5q27 0 48 -2t49 -11t46.5 -25t31.5 -46.5t13 -72.5q0 -19 -5 -46l-86 10q2 30 2 34q0 48 -27.5 69.5t-70.5 21.5q-48 0 -76.5 -31t-28.5 -82q0 -56 28.5 -79t115.5 -52q168 -55 168 -198q0 -103 -55.5 -161t-142.5 -58q-25 0 -49 4.5
t-51.5 16.5t-48 31.5t-34 52.5t-13.5 76q0 33 4 56l84 -12q-2 -10 -2 -32q0 -58 33 -89.5t74 -31.5q60 0 87.5 41.5t27.5 95.5q0 48 -31 84t-116 62q-79 24 -119.5 68.5t-40.5 124.5z" />
    <glyph glyph-name="T" unicode="T" horiz-adv-x="369" 
d="M5 700h359v-75h-141v-625h-82v625h-136v75z" />
    <glyph glyph-name="U" unicode="U" horiz-adv-x="525" 
d="M70 319v381h82v-381q0 -177 34 -225q28 -38 79 -38q48 0 76 38q22 31 27 72t5 153v381h82v-381q0 -114 -6.5 -168t-29.5 -92q-45 -73 -156 -73q-110 0 -155 73q-38 62 -38 260z" />
    <glyph glyph-name="V" unicode="V" horiz-adv-x="474" 
d="M469 700l-185 -700h-83l-196 700h86l132 -494q6 -24 10 -43t5 -27v-7q1 -3 2.5 -4.5t3.5 0t2 4.5q2 24 15 77l123 494h85z" />
    <glyph glyph-name="W" unicode="W" horiz-adv-x="742" 
d="M411 700l112 -500l15 -80q0 -3 2.5 -4.5t4.5 0t3 4.5l15 78l95 502h79l-143 -700h-103l-111 489q-3 15 -9 56q-1 2 -3 2t-3 -2l-8 -56l-102 -489h-102l-148 700h89l93 -498l15 -78q1 -3 3 -4.5t4.5 0t2.5 4.5l15 78l96 498h88z" />
    <glyph glyph-name="X" unicode="X" horiz-adv-x="493" 
d="M26 700h96l115 -244l115 244h90l-157 -310l203 -390h-97l-155 303l-142 -303h-89l180 376z" />
    <glyph glyph-name="Y" unicode="Y" horiz-adv-x="440" 
d="M264 282v-282h-82v282l-177 418h90l131 -320l120 320h89z" />
    <glyph glyph-name="Z" unicode="Z" horiz-adv-x="423" 
d="M22 700h381v-69l-289 -556h287v-75h-381v69l289 558h-287v73z" />
    <glyph glyph-name="bracketleft" unicode="[" horiz-adv-x="345" 
d="M80 -174h1v849h-1v75h255v-75h-172v-849h172v-75h-255v75z" />
    <glyph glyph-name="backslash" unicode="\" horiz-adv-x="369" 
d="M81 790l283 -905l-76 -23l-283 905z" />
    <glyph glyph-name="bracketright" unicode="]" horiz-adv-x="345" 
d="M10 -174h172v849h-172v75h255v-75h-1v-849h1v-75h-255v75z" />
    <glyph glyph-name="underscore" unicode="_" 
d="M40 147h299v-71h-299v71z" />
    <glyph glyph-name="a" unicode="a" horiz-adv-x="470" 
d="M435 70l-37 -71q-28 5 -48.5 27t-23.5 51q-4 10 -8 0q-15 -37 -47.5 -62t-75.5 -25q-67 0 -108.5 42.5t-41.5 108.5t51.5 105.5t122.5 39.5q51 0 88 -8v108q0 65 -19.5 91.5t-78.5 26.5q-28 0 -50.5 -14.5t-22.5 -37.5q0 -22 13 -48l-69 -32q-21 32 -21 77q0 53 43.5 87
t108.5 34q99 0 137.5 -42.5t38.5 -122.5v-228q0 -46 9 -70.5t39 -36.5zM205 62q42 0 72 36.5t30 94.5v17q-40 9 -88 9q-43 0 -67 -22t-24 -58t19.5 -56.5t57.5 -20.5z" />
    <glyph glyph-name="b" unicode="b" horiz-adv-x="484" 
d="M159 315l1 -247q33 -9 69 -7q57 3 88 46q33 46 33 192q0 123 -28 170q-20 34 -67 34q-30 0 -50 -13t-29.5 -40t-13 -58t-3.5 -77zM80 15v735h80l-1 -233q43 53 104 53q47 0 79 -13.5t56 -53.5q37 -62 35 -203q0 -70 -12 -133t-33 -95q-25 -39 -69.5 -59t-90.5 -20
q-98 0 -148 22z" />
    <glyph glyph-name="c" unicode="c" horiz-adv-x="432" 
d="M310 177l79 5q11 -79 -17 -122q-46 -70 -142 -70q-95 0 -141 70q-39 59 -39 220q0 167 37 223q44 67 143 67q100 0 144 -67q26 -39 14 -112l-81 7q5 55 -12 78q-20 28 -64 28t-68 -34q-29 -40 -29 -189q0 -146 29 -186q25 -36 68 -36q45 0 67 31q18 25 12 87z" />
    <glyph glyph-name="d" unicode="d" horiz-adv-x="488" 
d="M408 750l-1 -565q1 -93 46 -142l-60 -51q-37 23 -48 63q-1 4 -4.5 4t-5.5 -4q-12 -24 -45.5 -44.5t-68.5 -20.5q-91 0 -130 67q-42 70 -40 213q0 153 43 218q26 39 69.5 59t88.5 20q48 0 76 -9v192h80zM329 239l-1 251q-39 11 -77 9q-55 -3 -86 -46t-31 -182
q0 -47 8.5 -100t24.5 -80q20 -34 67 -34q30 0 54 23.5t33 61.5q8 34 8 97z" />
    <glyph glyph-name="e" unicode="e" horiz-adv-x="451" 
d="M392 285h-258v-4q0 -146 29 -186q25 -36 68 -36t67 34q20 27 14 84l77 5q11 -79 -17 -122q-46 -70 -142 -70q-95 0 -141 70q-39 59 -39 220q0 167 37 223q44 67 143 67q98 0 142 -67q22 -33 27 -92.5t-7 -125.5zM163 470q-21 -31 -27 -115h179q10 79 -17 115
q-24 34 -67 34q-44 0 -68 -34z" />
    <glyph glyph-name="f" unicode="f" horiz-adv-x="280" 
d="M38 564h45v49q0 68 33 110t99 42q63 0 95 -37l-41 -57q-23 18 -47 18q-59 0 -59 -74v-51h91v-68h-91v-496h-80v496h-45v68z" />
    <glyph glyph-name="g" unicode="g" horiz-adv-x="538" 
d="M449 391q0 -88 -50 -136.5t-142 -47.5q-28 0 -55 5q-25 -18 -25 -38q0 -26 24.5 -38t86.5 -12q92 0 150.5 -46t58.5 -138q0 -85 -63.5 -137.5t-156.5 -52.5q-103 0 -160 46.5t-57 129.5q0 88 75 150q-37 30 -37 83q0 43 38 78q-70 45 -70 154q0 84 48 131.5t143 47.5
q66 0 110 -23q25 28 67 37.5t67 -2.5l-13 -71q-42 13 -68 -11q29 -43 29 -109zM239 48q-24 0 -42 3q-51 -40 -51 -117q0 -54 33 -86.5t99 -32.5q62 0 96 32t34 90q0 65 -41 88t-128 23zM151 391q0 -53 25 -87t82 -34q61 0 83.5 31t22.5 90q0 55 -22.5 86.5t-83.5 31.5
q-57 0 -81.5 -30t-25.5 -88z" />
    <glyph glyph-name="h" unicode="h" horiz-adv-x="509" 
d="M80 0v750h80v-150q0 -47 -6 -81q2 -10 8 -1q40 52 113 52q90 0 128 -62t35 -209v-299h-80v299q0 110 -23.5 155.5t-72.5 45.5q-33 0 -59 -22t-35 -60q-8 -34 -8 -97v-321h-80z" />
    <glyph glyph-name="i" unicode="i" horiz-adv-x="260" 
d="M80 696q0 54 50 54t50 -54t-50 -54t-50 54zM90 0v560h80v-560h-80z" />
    <glyph glyph-name="j" unicode="j" horiz-adv-x="260" 
d="M80 696q0 54 50 54t50 -54t-50 -54t-50 54zM43 -182q27 0 37 18t10 63v661h80v-659q0 -82 -29 -120t-94 -38q-56 0 -94 38l41 63q24 -26 49 -26z" />
    <glyph glyph-name="k" unicode="k" horiz-adv-x="467" 
d="M79 0v750h80v-411h45l129 221h81l-149 -254l164 -306h-82l-150 275h-38v-275h-80z" />
    <glyph glyph-name="l" unicode="l" horiz-adv-x="300" 
d="M80 148v602h80v-604q0 -45 10 -63t37 -18q23 0 49 24l39 -59q-36 -40 -92 -40q-65 0 -94 38t-29 120z" />
    <glyph glyph-name="m" unicode="m" horiz-adv-x="763" 
d="M401 485q0 -2 2 -3.5t4 -0.5t3 4q10 32 44.5 58.5t80.5 26.5q91 0 125.5 -60.5t31.5 -210.5v-299h-80v299q0 112 -21 156.5t-69 44.5q-32 0 -56.5 -22t-33.5 -60q-8 -34 -8 -97l1 -321h-80v299q0 112 -21 156.5t-69 44.5q-32 0 -56 -22t-33 -60q-8 -34 -8 -97v-321h-80
v375q0 62 -8 92t-30 50l61 47q33 -27 42 -59q0 -2 2 -3.5t4 -0.5t3 4q9 24 42 44.5t74 20.5q99 0 133 -85z" />
    <glyph glyph-name="n" unicode="n" horiz-adv-x="504" 
d="M78 0v375q0 62 -8 92t-30 50l61 47q33 -27 42 -59q0 -2 2 -3.5t4 -0.5t3 4q9 24 44 44.5t76 20.5q90 0 127 -61.5t34 -209.5v-299h-80v299q0 111 -23 156t-71 45q-33 0 -58.5 -22t-34.5 -60q-8 -34 -8 -97v-321h-80z" />
    <glyph glyph-name="o" unicode="o" horiz-adv-x="459" 
d="M409 280q0 -165 -36 -220q-46 -70 -144 -70q-97 0 -143 70q-36 55 -36 220q0 171 34 223q44 67 145 67q102 0 146 -67q34 -52 34 -223zM134 279q0 -149 26 -184q26 -36 70 -36t69 36q26 36 26 184q0 155 -26 191q-24 34 -69 34q-46 0 -70 -34q-26 -36 -26 -191z" />
    <glyph glyph-name="p" unicode="p" horiz-adv-x="488" 
d="M80 375q-1 58 -8 87t-32 52l62 50q32 -26 41 -59q1 -4 4.5 -4t5.5 4q9 25 41 45t73 20q47 0 79 -13.5t56 -53.5q37 -62 35 -203q0 -70 -12 -133t-33 -95q-25 -39 -69.5 -59t-90.5 -20q-44 0 -73 8l1 -251h-80v625zM167 418q-8 -34 -8 -97v-252q36 -10 74 -8q57 3 88 46
q33 46 33 192q0 123 -28 170q-20 34 -67 34q-32 0 -57.5 -23.5t-34.5 -61.5z" />
    <glyph glyph-name="q" unicode="q" horiz-adv-x="479" 
d="M325 248l-1 244q-33 9 -69 7q-60 -3 -88 -43q-33 -46 -33 -172q0 -135 28 -182q24 -42 67 -42q30 0 50 13t29.5 40t13 58t3.5 77zM324 -248l1 291q-43 -53 -104 -53q-89 0 -135 77q-37 63 -35 216q0 140 45 208q25 39 69 57.5t91 18.5q98 0 148 -22v-794z" />
    <glyph glyph-name="r" unicode="r" horiz-adv-x="386" 
d="M243 504q-66 0 -80 -87q-5 -35 -5 -98v-319h-80v375q0 62 -8 92t-30 50l59 47q31 -25 40 -59q0 -2 2 -3.5t4 -0.5t3 4q13 26 40.5 45.5t63.5 19.5q63 0 96.5 -30.5t33.5 -82.5q0 -27 -8 -51l-73 12q3 12 3 29q0 26 -17 41.5t-44 15.5z" />
    <glyph glyph-name="s" unicode="s" horiz-adv-x="396" 
d="M36 423q0 70 45.5 108.5t111.5 38.5q162 0 162 -134q0 -18 -4 -44l-80 12q2 22 2 30q0 70 -79 70q-34 0 -57.5 -22t-23.5 -57q0 -43 27 -64t93 -39q72 -19 103.5 -54.5t31.5 -102.5q0 -81 -50.5 -128t-118.5 -47q-26 0 -52.5 6.5t-54 21.5t-45 46t-17.5 74q0 24 3 45
l79 -10q-1 -8 -1 -25q0 -47 25.5 -68t61.5 -21q44 0 67 29t23 70q0 38 -20 62.5t-75 37.5q-80 19 -118.5 57.5t-38.5 107.5z" />
    <glyph glyph-name="t" unicode="t" horiz-adv-x="314" 
d="M79 146v346h-46v68h46l1 101h79l-3 -101h111v-68h-108v-352q0 -40 11 -57.5t38 -17.5q26 0 51 25l39 -58q-37 -42 -94 -42q-65 0 -95 37.5t-30 118.5z" />
    <glyph glyph-name="u" unicode="u" horiz-adv-x="509" 
d="M357 76q-8 -33 -45.5 -59.5t-79.5 -26.5q-90 0 -127 61.5t-34 209.5v299h80v-299q0 -111 23 -156t71 -45q32 0 57 24t34 63q10 42 10 97v316h80v-383q0 -46 9 -71t39 -37l-37 -71q-28 5 -48.5 27t-23.5 51q-3 7 -7 3q-1 -1 -1 -3z" />
    <glyph glyph-name="v" unicode="v" horiz-adv-x="417" 
d="M412 560l-160 -560h-79l-168 560h84l104 -354q6 -24 10 -43t5 -27v-7q1 -3 2.5 -4.5t3.5 0t2 4.5q2 24 15 77l98 354h83z" />
    <glyph glyph-name="w" unicode="w" horiz-adv-x="664" 
d="M649 560l-115 -560h-85l-102 395q-8 34 -9 56q-1 2 -3 2t-3 -2q-2 -31 -8 -56l-95 -395h-86l-128 560h85l68 -366l15 -78q1 -3 2.5 -4.5t3.5 0t2 4.5q2 25 15 78l87 366h83l93 -366l16 -78q1 -3 2.5 -4.5t3.5 0t2 4.5l14 78l62 366h80z" />
    <glyph glyph-name="x" unicode="x" horiz-adv-x="425" 
d="M21 560h82l105 -207l98 207h84l-135 -260l165 -300h-89l-125 231l-117 -231h-84l151 292z" />
    <glyph glyph-name="y" unicode="y" horiz-adv-x="416" 
d="M6 -214l41 59q23 -25 45 -22q26 0 43.5 30t38.5 119l7 30l-176 558h93l96 -325q11 -48 17 -96q2 -8 6 -4q1 1 1 4q5 20 10 43l100 378h83l-184 -666q-21 -77 -53.5 -110.5t-81.5 -33.5q-52 0 -86 36z" />
    <glyph glyph-name="z" unicode="z" horiz-adv-x="365" 
d="M39 560h307v-67l-241 -420h226v-73h-305v67l232 422h-219v71z" />
    <glyph glyph-name="braceleft" unicode="{" horiz-adv-x="269" 
d="M88 -139q0 27 9 99.5t11 112.5q3 62 -18.5 95t-79.5 33v96q58 0 79.5 33t18.5 95q-2 38 -11 107.5t-9 104.5q0 122 115 122l56 -4l-9 -75q-15 3 -30 3q-31 0 -40.5 -16t-7.5 -52q0 -7 5.5 -47.5t9.5 -88t4 -83.5q0 -123 -101 -143q-3 0 -3 -4t3 -4q101 -20 101 -143
q0 -36 -4 -83.5t-9.5 -88t-5.5 -47.5q-2 -36 7.5 -52t40.5 -16l30 3l9 -75q-33 -4 -56 -4q-115 0 -115 122z" />
    <glyph glyph-name="bar" unicode="|" horiz-adv-x="242" 
d="M80 -250v1000h82v-1000h-82z" />
    <glyph glyph-name="braceright" unicode="}" horiz-adv-x="269" 
d="M181 -139q0 -122 -115 -122l-56 4l9 75q15 -3 30 -3q31 0 40.5 16t7.5 52q0 7 -5.5 47.5t-9.5 88t-4 83.5q0 123 101 143q3 0 3 4t-3 4q-101 20 -101 143q0 36 4 83.5t9.5 88t5.5 47.5q2 36 -7.5 52t-40.5 16l-30 -3l-9 75q33 4 56 4q115 0 115 -122q0 -35 -9 -104.5
t-11 -107.5q-3 -62 18.5 -95t79.5 -33v-96q-58 0 -79.5 -33t-18.5 -95q2 -40 11 -112.5t9 -99.5z" />
    <glyph glyph-name="guillemotleft" unicode="&#xab;" horiz-adv-x="434" 
d="M295 287l69 -179l-46 -24l-112 203l112 203l46 -24zM139 287l69 -179l-46 -24l-112 203l112 203l46 -24z" />
    <glyph glyph-name="plusminus" unicode="&#xb1;" horiz-adv-x="447" 
d="M259 612v-139h138v-67h-138v-141h-71v141h-138v67h138v139h71zM50 213h347v-67h-347v67z" />
    <glyph glyph-name="guillemotright" unicode="&#xbb;" horiz-adv-x="434" 
d="M70 108l69 179l-69 179l46 24l112 -203l-112 -203zM226 108l69 179l-69 179l46 24l112 -203l-112 -203z" />
    <glyph glyph-name="divide" unicode="&#xf7;" horiz-adv-x="439" 
d="M50 383h339v-67h-339v67zM173 483q0 46 45 46q46 0 46 -46q0 -45 -46 -45q-45 0 -45 45zM173 216q0 46 45 46q46 0 46 -46q0 -45 -46 -45q-45 0 -45 45z" />
    <glyph glyph-name="afii10023" unicode="&#x401;" horiz-adv-x="433" 
d="M80 0v700h311v-75h-229v-219h186v-75h-186v-256h231v-75h-313zM109 837q0 54 49 54q24 0 36 -15.5t12 -38.5q0 -22 -12 -38t-36 -16q-49 0 -49 54zM266 837q0 54 48 54t48 -54q0 -22 -11.5 -38t-36.5 -16q-48 0 -48 54z" />
    <glyph glyph-name="afii10017" unicode="&#x410;" horiz-adv-x="454" 
d="M9 0l165 700h102l169 -700h-86l-46 201h-180l-46 -201h-78zM203 501l-53 -228h147l-52 228l-17 81q-1 3 -2.5 4.5t-3.5 0t-2 -4.5z" />
    <glyph glyph-name="afii10018" unicode="&#x411;" horiz-adv-x="486" 
d="M232 445q110 0 162 -58t52 -162q0 -103 -61.5 -166t-170.5 -63q-67 0 -134 4v700h329v-75h-247v-188q34 8 70 8zM229 371q-37 0 -67 -11v-293q35 -2 62 -1q69 1 103.5 43t34.5 115q0 72 -30 109.5t-103 37.5z" />
    <glyph glyph-name="afii10019" unicode="&#x412;" horiz-adv-x="512" 
d="M80 0v700q82 4 150 4q88 0 140 -39.5t52 -123.5q0 -60 -23 -99.5t-59 -56.5q-3 -1 -3 -4.5t3 -4.5q49 -13 80.5 -60t31.5 -113q0 -92 -57.5 -149.5t-163.5 -57.5q-49 0 -151 4zM232 340h-70v-273q27 -3 65 -1q66 1 101.5 36.5t35.5 99.5q0 138 -132 138zM232 636h-70
v-226h70q59 0 83.5 37t24.5 90q0 40 -26 68.5t-82 30.5z" />
    <glyph glyph-name="afii10020" unicode="&#x413;" horiz-adv-x="399" 
d="M80 0v700h82v-1h232v-75h-232v-624h-82z" />
    <glyph glyph-name="afii10021" unicode="&#x414;" horiz-adv-x="541" 
d="M10 -125v201h47q40 35 54.5 180.5t14.5 443.5h318v-624h67v-201h-78v125h-345v-125h-78zM158 75h204v550h-159l-1 -225q-1 -212 -44 -325z" />
    <glyph glyph-name="afii10022" unicode="&#x415;" horiz-adv-x="433" 
d="M80 0v700h311v-75h-229v-219h186v-75h-186v-256h231v-75h-313z" />
    <glyph glyph-name="afii10024" unicode="&#x416;" horiz-adv-x="757" 
d="M731 91l21 -86q-27 -11 -61 -11t-57.5 16.5t-37 52t-20.5 72.5t-13 97q-9 97 -97 97h-46v-329h-82v329h-46q-88 0 -97 -97q-6 -59 -13 -96.5t-21 -73t-37.5 -52t-57.5 -16.5t-61 11l21 86q15 -3 17 -3q24 0 33 13q6 7 11 22t8.5 36t6 37.5t5 39t3.5 27.5q13 99 90 105
q4 0 4 3q-1 3 -4 4q-48 13 -66 74q-3 12 -11.5 59t-10.5 56q-5 22 -17 37t-26 15q-13 0 -20 -3l-21 88q20 9 55 9q26 0 46 -11t31.5 -25t21 -42t12.5 -45.5l9 -53.5t8 -50q15 -75 80 -75h47v292h82v-292h47q65 0 80 75q2 14 8 50l9 53.5t12.5 45.5t21 42t31.5 25t46 11
q35 0 55 -9l-21 -88q-7 3 -20 3q-14 0 -26 -15t-17 -37q-2 -9 -10.5 -56t-11.5 -59q-18 -61 -66 -74q-4 0 -4 -3q1 -3 4 -4q77 -6 90 -105q1 -4 4.5 -35.5t6.5 -51.5t9 -43.5t13 -31.5q9 -13 33 -13q2 0 17 3z" />
    <glyph glyph-name="afii10025" unicode="&#x417;" horiz-adv-x="465" 
d="M233 -14q-92 0 -140.5 41t-48.5 134q0 23 3 42l83 -7q-2 -18 -2 -27q0 -56 27 -83.5t73 -27.5q56 0 91.5 38t35.5 101q0 73 -35.5 106t-92.5 33h-71v74h66q55 0 78.5 39.5t23.5 92.5q0 42 -24 73t-82 31q-32 0 -61.5 -19.5t-29.5 -63.5q0 -15 2 -23l-81 -7q-4 32 -4 42
q0 74 54 107.5t122 33.5q86 0 136 -42.5t50 -127.5q0 -63 -21.5 -101t-67.5 -62q-4 -2 -4 -5q0 -4 4 -4q54 -9 88.5 -51t34.5 -120q0 -95 -52.5 -156t-154.5 -61z" />
    <glyph glyph-name="afii10026" unicode="&#x418;" horiz-adv-x="555" 
d="M158 133l222 567h95v-701h-82v331q0 142 10 234q1 3 -2 4t-4 -2l-221 -566h-96v700h82v-326q0 -179 -10 -239q-1 -4 2 -4.5t4 2.5z" />
    <glyph glyph-name="afii10027" unicode="&#x419;" horiz-adv-x="555" 
d="M158 133l222 567h95v-701h-82v331q0 142 10 234q1 3 -2 4t-4 -2l-221 -566h-96v700h82v-326q0 -179 -10 -239q-1 -4 2 -4.5t4 2.5zM273 811q30 0 46.5 21.5t16.5 53.5l66 -12q0 -58 -37.5 -88.5t-91.5 -30.5t-91.5 30.5t-37.5 88.5l66 12q0 -32 16.5 -53.5t46.5 -21.5z
" />
    <glyph glyph-name="afii10028" unicode="&#x41a;" horiz-adv-x="527" 
d="M495 91l21 -86q-27 -11 -61 -11t-58 18t-38 54.5t-21.5 75.5t-13.5 98q-5 53 -30 74t-67 21h-66v-335h-82v700h82v-283h67q65 0 80 74l8 49t9 52.5t12.5 43.5t21 40.5t31.5 23t46 10.5q35 0 55 -9l-21 -88q-7 3 -20 3q-14 0 -26 -15t-17 -37q-2 -8 -10.5 -51.5
t-11.5 -55.5q-18 -61 -66 -74q-4 0 -4 -3q1 -3 4 -4q77 -6 90 -105q0 -3 3.5 -28l6 -41.5t6.5 -39.5t9 -38.5t11 -22.5q9 -13 33 -13q2 0 17 3z" />
    <glyph glyph-name="afii10029" unicode="&#x41b;" horiz-adv-x="518" 
d="M438 700v-700h-82v625h-162v-225q0 -235 -27.5 -319t-119.5 -85q-18 0 -42 9l14 86q9 -5 23 -5q22 0 34 11q28 25 34 129.5t6 385.5v88h322z" />
    <glyph glyph-name="afii10030" unicode="&#x41c;" horiz-adv-x="672" 
d="M510 0v380q0 106 8 171q-2 7 -6 3l-140 -368h-72l-140 367q-4 2 -6 -3q8 -71 8 -171v-379h-82v699h103l150 -406q1 -1 3 -1t3 1l150 406h103v-699h-82z" />
    <glyph glyph-name="afii10031" unicode="&#x41d;" horiz-adv-x="541" 
d="M379 0v331h-217v-331h-82v700h82v-294h217v294h82v-700h-82z" />
    <glyph glyph-name="afii10032" unicode="&#x41e;" horiz-adv-x="505" 
d="M134 359q0 -213 36 -264q28 -38 83 -38q52 0 80 38q36 51 36 264q0 200 -33 246q-28 38 -83 38q-58 0 -86 -38q-33 -46 -33 -246zM455 360q0 -88 -11 -176.5t-33 -125.5q-45 -73 -160 -73q-114 0 -159 73q-42 69 -42 302q0 218 39 282q45 73 162 73q118 0 163 -73
q41 -67 41 -282z" />
    <glyph glyph-name="afii10033" unicode="&#x41f;" horiz-adv-x="541" 
d="M379 0v625h-217v-625h-82v700h381v-700h-82z" />
    <glyph glyph-name="afii10034" unicode="&#x420;" horiz-adv-x="471" 
d="M80 0v700q61 4 139 4q103 0 157.5 -50.5t54.5 -145.5q0 -99 -52.5 -163.5t-162.5 -64.5q-25 0 -54 8v-288h-82zM229 636q-46 0 -67 -2v-273q23 -9 61 -9q60 0 92 39.5t32 112.5q0 66 -27.5 98.5t-90.5 33.5z" />
    <glyph glyph-name="afii10035" unicode="&#x421;" horiz-adv-x="464" 
d="M338 196l84 7q9 -98 -19 -144q-45 -73 -154 -73q-106 0 -153 73q-46 72 -46 294q0 221 46 290q49 73 153 73q112 0 157 -73q29 -48 13 -139l-81 7q8 70 -10 97q-28 38 -77 38t-77 -38q-21 -29 -29.5 -109t-8.5 -147v-1q0 -67 8.5 -147.5t29.5 -109.5q28 -38 77 -38
q47 0 75 38q22 31 12 102z" />
    <glyph glyph-name="afii10036" unicode="&#x422;" horiz-adv-x="369" 
d="M5 700h359v-75h-141v-625h-82v625h-136v75z" />
    <glyph glyph-name="afii10037" unicode="&#x423;" horiz-adv-x="442" 
d="M53 25l41 64q27 -29 46 -26q24 0 37.5 15.5t22.5 52.5l-190 569h90l107 -344q17 -50 25 -89q2 -8 6 -4q1 1 1 4q2 13 8 36l106 397h84l-158 -566q-21 -76 -55 -110t-84 -34q-54 0 -87 35z" />
    <glyph glyph-name="afii10038" unicode="&#x424;" horiz-adv-x="665" 
d="M295 -20v72l-40 4q-117 10 -157 75q-48 79 -48 238q0 161 46 236q40 65 159 75q24 2 40 2v68h82v-68q14 0 38 -2q119 -10 159 -75q46 -75 46 -236q0 -159 -48 -238q-40 -65 -157 -75l-38 -3v-73h-82zM255 126l40 -3v489q-24 0 -40 -2q-56 -7 -81 -42q-38 -53 -38 -202
q0 -142 40 -198q25 -35 79 -42zM415 610q-4 1 -18 1.5t-20 0.5v-489l38 3q54 7 79 42q40 56 40 198q0 149 -38 202q-25 35 -81 42z" />
    <glyph glyph-name="afii10039" unicode="&#x425;" horiz-adv-x="493" 
d="M26 700h96l115 -244l115 244h90l-157 -310l203 -390h-97l-155 303l-142 -303h-89l180 376z" />
    <glyph glyph-name="afii10040" unicode="&#x426;" horiz-adv-x="546" 
d="M80 0v700h82v-625h217v625h82v-625h76v-201h-82v126h-375z" />
    <glyph glyph-name="afii10041" unicode="&#x427;" horiz-adv-x="490" 
d="M40 470v231h82v-229q0 -105 106 -105q54 0 100 11v323h82v-701h-82v297q-48 -11 -101 -11q-187 0 -187 184z" />
    <glyph glyph-name="afii10042" unicode="&#x428;" horiz-adv-x="718" 
d="M80 0v700h82v-625h156v625h82v-625h156v625h82v-700h-558z" />
    <glyph glyph-name="afii10043" unicode="&#x429;" horiz-adv-x="727" 
d="M80 0v700h82v-625h158v625h82v-625h158v625h82v-625h76v-201h-82v126h-556z" />
    <glyph glyph-name="afii10044" unicode="&#x42a;" horiz-adv-x="518" 
d="M5 700h189v-263q34 8 70 8q110 0 162 -58t52 -162q0 -103 -61.5 -166t-170.5 -63q-67 0 -134 4v625h-107v75zM261 371q-37 0 -67 -11v-293q35 -2 62 -1q69 1 103.5 43t34.5 115q0 72 -30 109.5t-103 37.5z" />
    <glyph glyph-name="afii10045" unicode="&#x42b;" horiz-adv-x="681" 
d="M232 445q110 0 162 -58t52 -162q0 -103 -61.5 -166t-170.5 -63q-67 0 -134 4v700h82v-263q34 8 70 8zM519 0v700h82v-700h-82zM229 371q-37 0 -67 -11v-293q35 -2 62 -1q69 1 103.5 43t34.5 115q0 72 -30 109.5t-103 37.5z" />
    <glyph glyph-name="afii10046" unicode="&#x42c;" horiz-adv-x="486" 
d="M232 445q110 0 162 -58t52 -162q0 -103 -61.5 -166t-170.5 -63q-67 0 -134 4v700h82v-263q34 8 70 8zM229 371q-37 0 -67 -11v-293q35 -2 62 -1q69 1 103.5 43t34.5 115q0 72 -30 109.5t-103 37.5z" />
    <glyph glyph-name="afii10047" unicode="&#x42d;" horiz-adv-x="468" 
d="M125 398h206q-7 167 -37 210q-28 38 -79 38t-79 -38q-18 -27 -10 -97l-81 -7q-16 91 13 139q45 73 159 73q106 0 155 -73q46 -69 46 -290q0 -222 -46 -294q-47 -73 -155 -73q-111 0 -156 73q-28 46 -19 144l84 -7q-10 -70 13 -102q28 -38 76 -38q51 0 79 38q32 45 37 227
h-206v77z" />
    <glyph glyph-name="afii10048" unicode="&#x42e;" horiz-adv-x="695" 
d="M80 0v700h82v-300h104q4 188 38 243q45 73 159 73q115 0 160 -73q40 -65 40 -290q0 -229 -40 -294q-45 -73 -160 -73q-114 0 -159 73q-36 58 -38 266h-104v-325h-82zM350 352v-1q0 -212 32 -257q28 -38 83 -38q52 0 80 38q32 45 32 258q0 211 -32 256q-28 38 -80 38
q-55 0 -83 -38q-32 -45 -32 -256z" />
    <glyph glyph-name="afii10049" unicode="&#x42f;" horiz-adv-x="538" 
d="M206 204q-6 -52 -11 -82t-17 -63.5t-32.5 -49t-51.5 -15.5q-26 0 -54 11l17 83q11 -4 21 -4q12 0 19.5 7.5t12 24.5t6.5 32.5t4.5 44t5.5 46.5q14 82 77 93q5 0 4 4q-1 3 -4 3q-58 25 -84 66.5t-26 107.5q0 87 60.5 139t158.5 52q89 0 146 -4v-700h-82v299h-67
q-45 0 -72 -28.5t-31 -66.5zM180 517q0 -63 32.5 -100t96.5 -37h67v250q-30 3 -69 3q-58 0 -92.5 -29t-34.5 -87z" />
    <glyph glyph-name="afii10065" unicode="&#x430;" horiz-adv-x="470" 
d="M435 70l-37 -71q-28 5 -48.5 27t-23.5 51q-4 10 -8 0q-15 -37 -47.5 -62t-75.5 -25q-67 0 -108.5 42.5t-41.5 108.5t51.5 105.5t122.5 39.5q51 0 88 -8v108q0 65 -19.5 91.5t-78.5 26.5q-28 0 -50.5 -14.5t-22.5 -37.5q0 -22 13 -48l-69 -32q-21 32 -21 77q0 53 43.5 87
t108.5 34q99 0 137.5 -42.5t38.5 -122.5v-228q0 -46 9 -70.5t39 -36.5zM205 62q42 0 72 36.5t30 94.5v17q-40 9 -88 9q-43 0 -67 -22t-24 -58t19.5 -56.5t57.5 -20.5z" />
    <glyph glyph-name="afii10066" unicode="&#x431;" horiz-adv-x="454" 
d="M137 269q0 -135 28 -174q25 -36 66 -36q39 0 65 36q24 34 24 159v11q0 136 -29 176q-23 32 -60 32q-46 0 -67 -32q-27 -40 -27 -172zM118 478q0 -5 4 -4q2 1 2 3q12 28 44 46.5t69 18.5q47 0 75 -14t54 -54q38 -58 38 -208q0 -154 -34 -206q-46 -70 -140 -70
q-91 0 -137 70q-43 65 -43 213q0 203 17.5 287.5t86.5 124.5q26 15 51.5 21t48.5 7t33 4q26 8 36 35l70 -17q-8 -44 -31 -63t-58 -23q-7 -1 -28.5 -3t-32 -3.5t-27 -6t-29.5 -11.5q-29 -15 -49 -55.5t-20 -91.5z" />
    <glyph glyph-name="afii10067" unicode="&#x432;" horiz-adv-x="472" 
d="M80 0v560q94 10 146 10q68 0 117.5 -34t49.5 -102q0 -96 -71 -125q-3 -1 -3 -4.5t3 -4.5q46 -10 73 -44t27 -86q0 -83 -51 -131.5t-144 -48.5q-81 0 -147 10zM228 267h-68v-206q28 -4 63 -3q52 2 82.5 31t30.5 80q0 50 -26 74t-82 24zM228 504q-30 0 -68 -3v-166h68
q84 0 84 95q0 29 -21 51.5t-63 22.5z" />
    <glyph glyph-name="afii10068" unicode="&#x433;" horiz-adv-x="358" 
d="M80 0v560h273v-74h-193v-486h-80z" />
    <glyph glyph-name="afii10069" unicode="&#x434;" horiz-adv-x="497" 
d="M10 -119v193h33q19 9 33.5 31.5t23 63t14 76t7.5 99.5t3 102.5t1 113.5h278v-486h64v-193h-74v119h-309v-119h-74zM202 496q-11 -241 -23 -310q-14 -82 -43 -112h187v422h-121z" />
    <glyph glyph-name="afii10070" unicode="&#x435;" horiz-adv-x="443" 
d="M392 285h-258v-4q0 -146 29 -186q25 -36 68 -36t67 34q20 27 14 84l77 5q11 -79 -17 -122q-46 -70 -142 -70q-95 0 -141 70q-39 59 -39 220q0 167 37 223q44 67 143 67q98 0 142 -67q22 -33 27 -92.5t-7 -125.5zM163 470q-21 -31 -27 -115h179q10 79 -17 115
q-24 34 -67 34q-44 0 -68 -34z" />
    <glyph glyph-name="afii10072" unicode="&#x436;" horiz-adv-x="638" 
d="M616 76l17 -74q-27 -8 -49 -8q-29 0 -48.5 14t-31 44t-16.5 59.5t-10 78.5q-4 42 -23 58t-53 16h-43v-264h-80v264h-43q-34 0 -53 -16t-23 -58q-5 -49 -10 -78.5t-16.5 -59.5t-31 -44t-48.5 -14q-22 0 -49 8l17 74q8 -2 14 -2q16 0 23 10q16 20 28 131q9 78 77 83
q6 0 3 4q-1 2 -3 2q-23 3 -37.5 19.5t-19.5 36.5q-3 10 -10 47t-8 43q-8 36 -31 36q-10 0 -16 -2l-17 75q16 7 44 7q23 0 40 -8.5t26 -19t16 -31.5t9.5 -35.5t6.5 -41.5t6 -39q11 -57 62 -57h44v226h80v-226h44q51 0 62 57q2 12 6 39t6.5 41.5t9.5 35.5t16 31.5t26 19
t40 8.5q28 0 44 -7l-17 -75q-6 2 -16 2q-23 0 -31 -36q-1 -6 -8 -43t-10 -47q-5 -20 -19.5 -36.5t-37.5 -19.5q-6 0 -3 -4q1 -2 3 -2q68 -5 77 -83q12 -111 28 -131q7 -10 23 -10q6 0 14 2z" />
    <glyph glyph-name="afii10073" unicode="&#x437;" horiz-adv-x="413" 
d="M202 59q48 0 72.5 31t24.5 78q0 92 -99 92h-48v73h43q40 0 63.5 29.5t23.5 66.5q0 32 -21 53.5t-66 21.5q-46 0 -66 -30q-11 -18 -8 -56l-77 -7q-9 57 14 92q44 67 138 67q84 0 125.5 -38.5t41.5 -98.5q0 -47 -22 -80.5t-60 -47.5q-3 -1 -3 -4.5t3 -4.5q102 -19 102 -125
q0 -76 -44.5 -128.5t-137.5 -52.5q-94 0 -140 70q-28 43 -17 122l79 -5q-6 -59 12 -84q24 -34 67 -34z" />
    <glyph glyph-name="afii10074" unicode="&#x438;" horiz-adv-x="508" 
d="M156 107l171 453h101v-560h-80v216q0 142 10 234q1 3 -2 4t-4 -2l-170 -452h-102v560h80v-212q0 -179 -10 -239q-1 -4 2 -4.5t4 2.5z" />
    <glyph glyph-name="afii10075" unicode="&#x439;" horiz-adv-x="508" 
d="M256 674q30 0 45.5 22t15.5 54l64 -10q0 -58 -35.5 -86.5t-89.5 -28.5t-89.5 28.5t-35.5 86.5l64 10q0 -32 15.5 -54t45.5 -22zM156 107l171 453h101v-560h-80v216q0 142 10 234q1 3 -2 4t-4 -2l-170 -452h-102v560h80v-212q0 -179 -10 -239q-1 -4 2 -4.5t4 2.5z" />
    <glyph glyph-name="afii10076" unicode="&#x43a;" horiz-adv-x="455" 
d="M426 76l17 -74q-27 -8 -49 -8q-29 0 -48.5 14t-31 44t-16.5 59.5t-10 78.5q-4 42 -23 57.5t-53 15.5h-52v-263h-80v560h80v-225h53q51 0 62 56q2 12 6 39t6.5 41.5t9.5 35.5t16 31.5t26 19t40 8.5q28 0 44 -7l-17 -75q-6 2 -16 2q-23 0 -31 -36q-1 -6 -8 -43t-10 -47
q-5 -20 -19.5 -36.5t-37.5 -19.5q-6 0 -3 -4q1 -2 3 -2q68 -5 77 -83q12 -111 28 -131q7 -10 23 -10q6 0 14 2z" />
    <glyph glyph-name="afii10077" unicode="&#x43b;" horiz-adv-x="474" 
d="M314 0v496h-118q-1 -32 -1.5 -86t-1.5 -84t-3 -75.5t-6 -72t-10.5 -60t-17 -52t-25 -37t-34.5 -26t-46 -7.5q-23 0 -46 13l16 70q15 -9 31 -9q15 0 28 11q7 6 13 18.5t10 32.5t7 40.5t5 52.5l3.5 57t2 65.5t0.5 67.5t0.5 73t0.5 72h272v-560h-80z" />
    <glyph glyph-name="afii10078" unicode="&#x43c;" horiz-adv-x="616" 
d="M456 0v233q0 104 8 169q-2 7 -6 3l-114 -264h-72l-114 264q-4 2 -6 -3q8 -71 8 -169v-233h-80v560h87l138 -333q1 -1 3 -1t3 1l138 333h87v-560h-80z" />
    <glyph glyph-name="afii10079" unicode="&#x43d;" horiz-adv-x="498" 
d="M338 0v260h-178v-260h-80v560h80v-227h178v227h80v-560h-80z" />
    <glyph glyph-name="afii10080" unicode="&#x43e;" horiz-adv-x="459" 
d="M409 280q0 -165 -36 -220q-46 -70 -144 -70q-97 0 -143 70q-36 55 -36 220q0 171 34 223q44 67 145 67q102 0 146 -67q34 -52 34 -223zM134 279q0 -149 26 -184q26 -36 70 -36t69 36q26 36 26 184q0 155 -26 191q-24 34 -69 34q-46 0 -70 -34q-26 -36 -26 -191z" />
    <glyph glyph-name="afii10081" unicode="&#x43f;" horiz-adv-x="496" 
d="M336 0v487h-176v-487h-80v560h336v-560h-80z" />
    <glyph glyph-name="afii10082" unicode="&#x440;" horiz-adv-x="492" 
d="M84 375q-1 58 -8 87t-32 52l62 50q32 -26 41 -59q1 -4 4.5 -4t5.5 4q9 25 41 45t73 20q47 0 79 -13.5t56 -53.5q37 -62 35 -203q0 -70 -12 -133t-33 -95q-25 -39 -69.5 -59t-90.5 -20q-44 0 -73 8l1 -251h-80v625zM171 418q-8 -34 -8 -97v-252q36 -10 74 -8q57 3 88 46
q33 46 33 192q0 123 -28 170q-20 34 -67 34q-32 0 -57.5 -23.5t-34.5 -61.5z" />
    <glyph glyph-name="afii10083" unicode="&#x441;" horiz-adv-x="422" 
d="M310 177l79 5q11 -79 -17 -122q-46 -70 -142 -70q-95 0 -141 70q-39 59 -39 220q0 167 37 223q44 67 143 67q100 0 144 -67q26 -39 14 -112l-81 7q5 55 -12 78q-20 28 -64 28t-68 -34q-29 -40 -29 -189q0 -146 29 -186q25 -36 68 -36q45 0 67 31q18 25 12 87z" />
    <glyph glyph-name="afii10084" unicode="&#x442;" horiz-adv-x="348" 
d="M134 0v487h-124v73h328v-73h-124v-487h-80z" />
    <glyph glyph-name="afii10085" unicode="&#x443;" horiz-adv-x="412" 
d="M0 -214l41 59q23 -25 45 -22q26 0 43.5 30t38.5 119l7 30l-170 558h86l93 -332q15 -66 19 -96q2 -8 6 -4q1 1 1 4q5 20 10 43l102 385h83l-184 -666q-21 -77 -53.5 -110.5t-81.5 -33.5q-52 0 -86 36z" />
    <glyph glyph-name="afii10086" unicode="&#x444;" horiz-adv-x="651" 
d="M397 -10l-31 -2v-238h-80v238l-32 2q-46 3 -93 25.5t-72 61.5q-39 59 -39 209q0 146 40 205q46 71 164 79q22 2 32 2v178h80v-178q7 0 31 -2q119 -8 167 -81q37 -56 37 -203q0 -148 -40 -209q-25 -39 -71.5 -61.5t-92.5 -25.5zM253 60q24 -2 33 -2v444l-33 -2
q-60 -4 -89 -44q-30 -42 -30 -171q0 -127 27 -173q12 -21 37.5 -36t54.5 -16zM398 500l-32 2v-444q6 0 32 2q29 1 54.5 16t37.5 36q27 46 27 173q0 131 -29 171q-28 40 -90 44z" />
    <glyph glyph-name="afii10087" unicode="&#x445;" horiz-adv-x="409" 
d="M21 560h82l97 -205l90 205h84l-128 -259l158 -301h-89l-117 229l-109 -229h-84l144 292z" />
    <glyph glyph-name="afii10088" unicode="&#x446;" horiz-adv-x="501" 
d="M70 0v560h80v-487h177v487h80v-486h64v-193h-78v119h-323z" />
    <glyph glyph-name="afii10089" unicode="&#x447;" horiz-adv-x="437" 
d="M29 386v174h80v-174q0 -53 20 -75.5t65 -22.5q47 0 83 10v262h80v-560h-80v227q-43 -11 -83 -11q-84 0 -124.5 41t-40.5 129z" />
    <glyph glyph-name="afii10090" unicode="&#x448;" horiz-adv-x="672" 
d="M80 0v560h80v-487h136v487h80v-487h136v487h80v-560h-512z" />
    <glyph glyph-name="afii10091" unicode="&#x449;" horiz-adv-x="686" 
d="M80 0v560h80v-487h136v487h80v-487h136v487h80v-486h64v-193h-78v119h-498z" />
    <glyph glyph-name="afii10092" unicode="&#x44a;" horiz-adv-x="472" 
d="M5 560h188v-196q37 9 77 9q84 0 132.5 -47.5t48.5 -131.5q0 -88 -54.5 -145t-139.5 -59q-38 -1 -144 10v489h-108v71zM270 305q-51 0 -77 -8v-239q41 -2 67 -1q50 1 78.5 38.5t28.5 97.5q0 50 -26.5 81t-70.5 31z" />
    <glyph glyph-name="afii10093" unicode="&#x44b;" horiz-adv-x="643" 
d="M80 0v560h80v-196q37 9 77 9q84 0 132.5 -47.5t48.5 -131.5q0 -88 -54.5 -145t-139.5 -59q-38 -1 -144 10zM483 0v560h80v-560h-80zM237 305q-51 0 -77 -8v-239q41 -2 67 -1q50 1 78.5 38.5t28.5 97.5q0 50 -26.5 81t-70.5 31z" />
    <glyph glyph-name="afii10094" unicode="&#x44c;" horiz-adv-x="438" 
d="M80 0v560h80v-196q37 9 77 9q84 0 132.5 -47.5t48.5 -131.5q0 -88 -54.5 -145t-139.5 -59q-38 -1 -144 10zM237 305q-51 0 -77 -8v-239q41 -2 67 -1q50 1 78.5 38.5t28.5 97.5q0 50 -26.5 81t-70.5 31z" />
    <glyph glyph-name="afii10095" unicode="&#x44d;" horiz-adv-x="432" 
d="M134 324h163q-4 113 -28 146q-24 34 -68 34q-43 0 -67 -34q-14 -18 -9 -72l-81 -7q-12 73 14 112q44 67 144 67q99 0 143 -67q37 -56 37 -223q0 -161 -39 -220q-46 -70 -141 -70q-96 0 -142 70q-28 43 -17 122l79 -5q-6 -59 12 -84q24 -34 67 -34t68 36q25 33 29 156
h-164v73z" />
    <glyph glyph-name="afii10096" unicode="&#x44e;" horiz-adv-x="655" 
d="M80 1v560h80v-232h94q4 128 34 174q44 67 141 67q98 0 142 -67q34 -52 34 -223q0 -165 -36 -220q-46 -70 -140 -70q-93 0 -139 70q-34 51 -36 196h-94v-255h-80zM338 279q0 -149 26 -184q26 -36 66 -36t65 36q26 36 26 184q0 155 -26 191q-24 34 -65 34q-42 0 -66 -34
q-26 -36 -26 -191z" />
    <glyph glyph-name="afii10097" unicode="&#x44f;" horiz-adv-x="452" 
d="M90 187q7 68 61 77q3 0 3 3t-3 3q-51 20 -72 52.5t-21 86.5q0 72 50 116.5t126 44.5q62 0 138 -10v-560h-80v232h-58q-31 0 -50 -20t-22 -49q-10 -84 -31 -126.5t-72 -42.5q-22 0 -49 8l16 75q12 -3 15 -3q17 0 25 10q14 17 24 103zM138 409q0 -50 25 -77t71 -27h58v196
q-29 3 -58 3q-41 0 -68.5 -23.5t-27.5 -71.5z" />
    <glyph glyph-name="afii10071" unicode="&#x451;" horiz-adv-x="443" 
d="M392 285h-258v-4q0 -146 29 -186q25 -36 68 -36t67 34q20 27 14 84l77 5q11 -79 -17 -122q-46 -70 -142 -70q-95 0 -141 70q-39 59 -39 220q0 167 37 223q44 67 143 67q98 0 142 -67q22 -33 27 -92.5t-7 -125.5zM163 470q-21 -31 -27 -115h179q10 79 -17 115
q-24 34 -67 34q-44 0 -68 -34zM106 696q0 54 49 54q24 0 36 -15.5t12 -38.5q0 -22 -12 -38t-36 -16q-49 0 -49 54zM258 696q0 54 48 54t48 -54q0 -22 -11.5 -38t-36.5 -16q-48 0 -48 54z" />
    <glyph glyph-name="afii10102" unicode="&#x455;" horiz-adv-x="396" 
d="M36 423q0 70 45.5 108.5t111.5 38.5q162 0 162 -134q0 -18 -4 -44l-80 12q2 22 2 30q0 70 -79 70q-34 0 -57.5 -22t-23.5 -57q0 -43 27 -64t93 -39q72 -19 103.5 -54.5t31.5 -102.5q0 -81 -50.5 -128t-118.5 -47q-26 0 -52.5 6.5t-54 21.5t-45 46t-17.5 74q0 24 3 45
l79 -10q-1 -8 -1 -25q0 -47 25.5 -68t61.5 -21q44 0 67 29t23 70q0 38 -20 62.5t-75 37.5q-80 19 -118.5 57.5t-38.5 107.5z" />
    <glyph glyph-name="endash" unicode="&#x2013;" 
d="M40 405h299v-71h-299v71z" />
    <glyph glyph-name="emdash" unicode="&#x2014;" horiz-adv-x="669" 
d="M80 366h509v-73h-509v73z" />
    <glyph glyph-name="quoteleft" unicode="&#x2018;" horiz-adv-x="202" 
d="M104 547q-64 0 -64 82q0 49 30.5 83.5t80.5 37.5l7 -33q-26 -3 -47.5 -18t-21.5 -42q0 -7 3 -13q8 7 25 7q20 0 32.5 -15.5t12.5 -39.5q0 -20 -18 -34.5t-40 -14.5z" />
    <glyph glyph-name="quoteright" unicode="&#x2019;" horiz-adv-x="202" 
d="M98 751q64 0 64 -82q0 -49 -30.5 -83.5t-80.5 -37.5l-7 33q26 3 47.5 18t21.5 42q0 7 -3 13q-8 -7 -25 -7q-20 0 -32.5 15.5t-12.5 39.5q0 20 18 34.5t40 14.5z" />
    <glyph glyph-name="quotedblleft" unicode="&#x201c;" 
d="M281 547q-64 0 -64 82q0 49 30.5 83.5t80.5 37.5l7 -33q-26 -3 -47.5 -18t-21.5 -42q0 -7 3 -13q8 7 25 7q20 0 32.5 -15.5t12.5 -39.5q0 -20 -18 -34.5t-40 -14.5zM104 547q-64 0 -64 82q0 49 30.5 83.5t80.5 37.5l7 -33q-26 -3 -47.5 -18t-21.5 -42q0 -7 3 -13
q8 7 25 7q20 0 32.5 -15.5t12.5 -39.5q0 -20 -18 -34.5t-40 -14.5z" />
    <glyph glyph-name="quotedblright" unicode="&#x201d;" 
d="M98 751q64 0 64 -82q0 -49 -30.5 -83.5t-80.5 -37.5l-7 33q26 3 47.5 18t21.5 42q0 7 -3 13q-8 -7 -25 -7q-20 0 -32.5 15.5t-12.5 39.5q0 20 18 34.5t40 14.5zM275 751q64 0 64 -82q0 -49 -30.5 -83.5t-80.5 -37.5l-7 33q26 3 47.5 18t21.5 42q0 7 -3 13q-8 -7 -25 -7
q-20 0 -32.5 15.5t-12.5 39.5q0 20 18 34.5t40 14.5z" />
    <glyph glyph-name="quotedblbase" unicode="&#x201e;" 
d="M98 97q64 0 64 -82q0 -49 -30.5 -83.5t-80.5 -37.5l-7 33q26 3 47.5 18t21.5 42q0 7 -3 13q-8 -7 -25 -7q-20 0 -32.5 15.5t-12.5 39.5q0 20 18 34.5t40 14.5zM275 97q64 0 64 -82q0 -49 -30.5 -83.5t-80.5 -37.5l-7 33q26 3 47.5 18t21.5 42q0 7 -3 13q-8 -7 -25 -7
q-20 0 -32.5 15.5t-12.5 39.5q0 20 18 34.5t40 14.5z" />
    <glyph glyph-name="ellipsis" unicode="&#x2026;" horiz-adv-x="511" 
d="M40 42q0 48 47 48q49 0 49 -48t-49 -48q-47 0 -47 48zM207 42q0 48 48 48q49 0 49 -48t-49 -48q-48 0 -48 48zM375 42q0 48 47 48q49 0 49 -48t-49 -48q-47 0 -47 48z" />
    <glyph glyph-name="afii61352" unicode="&#x2116;" horiz-adv-x="876" 
d="M156 700l237 -521q1 -5 5 -2q1 2 1 4q-6 53 -6 253v266h82v-700h-77l-236 520q-1 3 -4 2t-2 -4q6 -94 6 -248v-271h-82v701h76zM619 448q0 -53 14 -82t58 -29t57 28t13 83q0 34 -3.5 54t-19.5 36t-47 16q-42 0 -56 -26.5t-16 -79.5zM827 449q0 -73 -32.5 -120t-104.5 -47
q-135 0 -135 167q0 161 135 161q70 0 103.5 -43t33.5 -118zM568 190h246v-69h-246v69z" />
    <glyph glyph-name="notequal" unicode="&#x2260;" horiz-adv-x="439" 
d="M50 304h114l50 89h-164v67h201l43 76l54 -28l-27 -48h68v-67h-105l-49 -89h154v-67h-191l-46 -83l-55 30l29 53h-76v67z" />
  </font>
</defs>
</svg>
